<svg width="current" height="current" viewBox="0 0 24 24" fill="none" xmlns="http://www.w3.org/2000/svg">
<path d="M4.78125 12.5391C4.78125 12.3906 4.80859 12.2539 4.86328 12.1289C4.91797 11.9961 5 11.875 5.10938 11.7656L14.4023 2.67188C14.6133 2.46875 14.8672 2.36719 15.1641 2.36719C15.3672 2.36719 15.5469 2.41406 15.7031 2.50781C15.8672 2.60156 15.9961 2.73047 16.0898 2.89453C16.1914 3.05078 16.2422 3.23047 16.2422 3.43359C16.2422 3.72266 16.1367 3.97656 15.9258 4.19531L7.39453 12.5391L15.9258 20.8828C16.1367 21.1016 16.2422 21.3555 16.2422 21.6445C16.2422 21.8477 16.1914 22.0273 16.0898 22.1836C15.9961 22.3477 15.8672 22.4766 15.7031 22.5703C15.5469 22.6641 15.3672 22.7109 15.1641 22.7109C14.8672 22.7109 14.6133 22.6055 14.4023 22.3945L5.10938 13.3125C5 13.2031 4.91797 13.0859 4.86328 12.9609C4.80859 12.8281 4.78125 12.6875 4.78125 12.5391Z" fill="black" fill-opacity="0.85"/>
</svg>
