<svg width="current" height="current" viewBox="0 0 24 24" fill="none" xmlns="http://www.w3.org/2000/svg">
<g clip-path="url(#clip0_258_8429)">
<path d="M3 12.4023C3 12.6465 3.10742 12.8711 3.30273 13.0566L9.78711 19.5312C9.98242 19.7168 10.1875 19.8047 10.4219 19.8047C10.9004 19.8047 11.2812 19.4531 11.2812 18.9648C11.2812 18.7305 11.1934 18.4961 11.0371 18.3496L8.84961 16.123L4.98242 12.5977L4.77734 13.0762L7.92188 13.2715H20.2754C20.7832 13.2715 21.1348 12.9102 21.1348 12.4023C21.1348 11.8945 20.7832 11.5332 20.2754 11.5332H7.92188L4.77734 11.7285L4.98242 12.2168L8.84961 8.68164L11.0371 6.45508C11.1934 6.29883 11.2812 6.07422 11.2812 5.83984C11.2812 5.35156 10.9004 5 10.4219 5C10.1875 5 9.98242 5.07812 9.76758 5.29297L3.30273 11.7481C3.10742 11.9336 3 12.1582 3 12.4023Z" fill="black" fill-opacity="0.85"/>
</g>
<defs>
<clipPath id="clip0_258_8429">
<rect width="18.4961" height="14.8145" fill="white" transform="translate(3 5)"/>
</clipPath>
</defs>
</svg>
