<svg width="24" height="24" viewBox="0 0 24 24" fill="none" xmlns="http://www.w3.org/2000/svg">
<g style="mix-blend-mode:plus-darker">
<path fill-rule="evenodd" clip-rule="evenodd" d="M12 23C18.0751 23 23 18.0751 23 12C23 5.92487 18.0751 1 12 1C5.92487 1 1 5.92487 1 12C1 18.0751 5.92487 23 12 23ZM17.3986 15.1795C17.9706 15.7596 17.9706 16.7666 17.3745 17.3628C16.7702 17.9671 15.7631 17.9671 15.183 17.387L12.0007 14.2046L8.81024 17.3951C8.26239 17.951 7.21503 17.9751 6.61884 17.3709C6.02264 16.7747 6.04681 15.7354 6.59467 15.1875L9.7851 11.9891L6.59467 8.80668C6.04681 8.25883 6.02264 7.21147 6.61884 6.61528C7.21503 6.01103 8.26239 6.04325 8.81024 6.59111L12.0007 9.77348L15.183 6.59916C15.7631 6.02714 16.7702 6.01908 17.3745 6.62333C17.9706 7.21952 17.9706 8.23466 17.3986 8.81474L14.2162 11.9891L17.3986 15.1795Z" fill="#15161A"/>
</g>
</svg>
