<svg width="25" height="24" viewBox="0 0 25 24" fill="none" xmlns="http://www.w3.org/2000/svg">
<g style="mix-blend-mode:plus-darker">
<path fill-rule="evenodd" clip-rule="evenodd" d="M12.5 23C18.5751 23 23.5 18.0751 23.5 12C23.5 5.92487 18.5751 1 12.5 1C6.42487 1 1.5 5.92487 1.5 12C1.5 18.0751 6.42487 23 12.5 23ZM17.8986 15.1795C18.4706 15.7596 18.4706 16.7666 17.8745 17.3628C17.2702 17.9671 16.2631 17.9671 15.683 17.387L12.5007 14.2046L9.31024 17.3951C8.76239 17.951 7.71503 17.9751 7.11884 17.3709C6.52264 16.7747 6.54681 15.7354 7.09467 15.1875L10.2851 11.9891L7.09467 8.80668C6.54681 8.25883 6.52264 7.21147 7.11884 6.61528C7.71503 6.01103 8.76239 6.04325 9.31024 6.59111L12.5007 9.77348L15.683 6.59916C16.2631 6.02714 17.2702 6.01908 17.8745 6.62333C18.4706 7.21952 18.4706 8.23466 17.8986 8.81474L14.7162 11.9891L17.8986 15.1795Z" fill="#FF8A80"/>
</g>
</svg>
