<svg width="fill" height="fill" viewBox="0 0 24 24" fill="none" xmlns="http://www.w3.org/2000/svg">
<path d="M5.86812 14C5.55161 14 5.25229 13.9097 4.97018 13.729C4.68807 13.5411 4.45413 13.2954 4.26835 12.9919C4.08945 12.6883 4 12.3559 4 11.9946C4 11.6332 4.08945 11.3008 4.26835 10.9973C4.45413 10.6938 4.68807 10.4517 4.97018 10.271C5.25229 10.0903 5.55161 10 5.86812 10H20.1319C20.469 10 20.7787 10.0903 21.0608 10.271C21.3429 10.4517 21.57 10.6938 21.742 10.9973C21.914 11.3008 22 11.6332 22 11.9946C22 12.3559 21.914 12.6883 21.742 12.9919C21.57 13.2954 21.3429 13.5411 21.0608 13.729C20.7787 13.9097 20.469 14 20.1319 14H5.86812Z" fill="current"/>
</svg>
