<svg width="current" height="current" viewBox="0 0 24 24" fill="none" xmlns="http://www.w3.org/2000/svg">
<path fill-rule="evenodd" clip-rule="evenodd" d="M10.3102 1.49976H13.6552C14.1592 1.49226 14.6527 1.65726 15.0502 1.96776C15.4507 2.28276 15.7282 2.72526 15.8302 3.22326L16.1227 4.62576C16.2497 4.69376 16.3747 4.76376 16.4977 4.83576L17.9152 4.37076C18.2068 4.27664 18.5147 4.24391 18.8196 4.27463C19.1245 4.30535 19.4197 4.39886 19.6867 4.54926C20.0167 4.73526 20.2942 5.00226 20.4877 5.32926L22.1752 8.11326C22.4479 8.54465 22.5555 9.06014 22.4781 9.56463C22.4006 10.0691 22.1433 10.5286 21.7537 10.8583H21.7507L20.6377 11.8078V12.1948L21.7372 13.1743C22.1193 13.4986 22.3738 13.948 22.4554 14.4425C22.537 14.937 22.4403 15.4444 22.1827 15.8743L20.5477 18.6643V18.6673C20.3531 18.9928 20.0773 19.2623 19.7473 19.4492C19.4173 19.6362 19.0444 19.7342 18.6652 19.7338C18.4306 19.735 18.1973 19.6996 17.9737 19.6288L17.9662 19.6258L16.5607 19.1623C16.4357 19.2363 16.3087 19.3068 16.1797 19.3738L15.8887 20.7748C15.7859 21.273 15.5095 21.7185 15.1087 22.0318C14.7102 22.3435 14.2165 22.5088 13.7107 22.4998H10.3387C9.83379 22.5081 9.34136 22.3429 8.94366 22.0318C8.54313 21.7189 8.2667 21.2739 8.16366 20.7763L7.87116 19.3723C7.7445 19.3053 7.61947 19.2352 7.49616 19.1623L6.07866 19.6273C5.78705 19.7214 5.47911 19.7541 5.17423 19.7234C4.86935 19.6927 4.57413 19.5992 4.30716 19.4488C3.97671 19.2644 3.70049 18.9964 3.50616 18.6718L1.81716 15.8818C1.55527 15.4591 1.45066 14.9577 1.52171 14.4656C1.59275 13.9734 1.83491 13.5221 2.20566 13.1908L3.32616 11.7778L2.25666 10.8253C1.87403 10.5006 1.61929 10.0505 1.53796 9.55535C1.45662 9.06019 1.55399 8.55224 1.81266 8.12226L1.81566 8.11926L3.50616 5.32926C3.6979 5.00674 3.96981 4.73931 4.29547 4.55296C4.62112 4.3666 4.98945 4.26766 5.36466 4.26576C5.59066 4.25376 5.81366 4.27526 6.03366 4.33026L6.06666 4.33926L7.46916 4.83276C7.59216 4.76076 7.71716 4.69176 7.84416 4.62576L8.13516 3.22476C8.23787 2.72652 8.51433 2.28101 8.91516 1.96776C9.31116 1.65726 9.80616 1.49226 10.3102 1.49976ZM12.0007 8.99976C11.205 8.99976 10.4419 9.31583 9.87934 9.87844C9.31673 10.441 9.00066 11.2041 9.00066 11.9998C9.00066 12.7954 9.31673 13.5585 9.87934 14.1211C10.4419 14.6837 11.205 14.9998 12.0007 14.9998C12.7963 14.9998 13.5594 14.6837 14.122 14.1211C14.6846 13.5585 15.0007 12.7954 15.0007 11.9998C15.0007 11.2041 14.6846 10.441 14.122 9.87844C13.5594 9.31583 12.7963 8.99976 12.0007 8.99976ZM7.50066 11.9998C7.50066 10.8063 7.97476 9.66169 8.81868 8.81778C9.66259 7.97386 10.8072 7.49976 12.0007 7.49976C13.1941 7.49976 14.3387 7.97386 15.1826 8.81778C16.0266 9.66169 16.5007 10.8063 16.5007 11.9998C16.5007 13.1932 16.0266 14.3378 15.1826 15.1817C14.3387 16.0257 13.1941 16.4998 12.0007 16.4998C10.8072 16.4998 9.66259 16.0257 8.81868 15.1817C7.97476 14.3378 7.50066 13.1932 7.50066 11.9998Z" fill="black"/>
</svg>
